<?xml version="1.0" encoding="utf-8"?>
<?xml-stylesheet type="text/xsl" href="rss1.xsl"?>
<rss version="2.0" xmlns:atom="http://www.w3.org/2005/Atom" xmlns:content="http://purl.org/rss/1.0/modules/content/" xmlns:dc="http://purl.org/dc/elements/1.1/" xmlns:media="http://search.yahoo.com/mrss/">
<channel>
 <title>Getty</title>
 <link>http://www.gettyimg.com/</link>
 <atom:link href="http://www.gettyimg.com/" rel="self" type="application/rss+xml" />

 
                <item>
                <title><![CDATA[【HD Live Performances】WEB-RiP - Ed Sheeran - Fan Fest Euro 2024 (Magenta) 1080p WEB-DL AAC2.0 H.264 CELOBRAZiL-HDMania]]></title>
                <link><![CDATA[https://sharemania.us/threads/ed-sheeran-fan-fest-euro-2024-magenta-1080p-web-dl-aac2-0-h-264-celobrazil-hdmania.248199/]]></link>
                <description><![CDATA[<article>
<blockquote class="messageText SelectQuoteContainer ugc baseHtml">
<div style="text-align: center"><b><span style="color: red">Ed Sheeran - Fan Fest Euro 2024 (Magenta) 1080p WEB-DL AAC2.0 H.264 CELOBRAZiL-HDMania</span></b>​</div><br>
<div style="text-align: center"><img src="https://i.ibb.co/TH7Rgrz/1.jpg" class="bbCodeImage LbImage" alt="[​IMG]" data-url="https://i.ibb.co/TH7Rgrz/1.jpg" style="">​</div><br>
<div style="text-align: center"><br>
<div class="ToggleTriggerAnchor bbCodeSpoilerContainer">
<button type="button" class="button bbCodeSpoilerButton ToggleTrigger Tooltip JsOnly" data-target="> .SpoilerTarget"><span>Spoiler: <span class="SpoilerTitle">MediaInfo</span></span></button>
<div class="SpoilerTarget bbCodeSpoilerText"><div style="text-align: left"><br>
Format : MPEG-4<br>
Format profile : Base Media<br>
Codec ID : isom (isom/iso2/avc1/mp41)<br>
File size : 5.95 GiB<br>
Duration : 1 h 33 min<br>
Overall bit rate mode : Variable<br>
Overall bit rate : 9 135 kb/s<br>
Frame rate : 25.000 FPS<br>
Writing application : Lavf60.16.100<br>
<br>
Video<br>
ID : 1<br>
Format : AVC<br>
Format/Info : Advanced Video Codec<br>
Format profile : Main@L4<br>
Format settings : CABAC / 4 Ref Frames<br>
Format settings, CABAC : Yes<br>
Format settings, Reference frames : 4 frames<br>
Codec ID : avc1<br>
Codec ID/Info : Advanced Video Coding<br>
Duration : 1 h 33 min<br>
Source duration : 1 h 33 min<br>
Bit rate mode : Constant<br>
Bit rate : 9 000 kb/s<br>
Width : 1 920 pixels<br>
Height : 1 080 pixels<br>
Display aspect ratio : 16:9<br>
Frame rate mode : Variable<br>
Frame rate : 25.000 FPS<br>
Minimum frame rate : 25.000 FPS<br>
Maximum frame rate : 90 000.000 FPS<br>
Color space : YUV<br>
Chroma subsampling : 4:2:0<br>
Bit depth : 8 bits<br>
Scan type : Progressive<br>
Bits/(Pixel*Frame) : 0.174<br>
Stream size : 5.86 GiB (99%)<br>
Source stream size : 5.86 GiB (99%)<br>
Color range : Limited<br>
Color primaries : BT.709<br>
Transfer characteristics : BT.709<br>
Matrix coefficients : BT.709<br>
mdhd_Duration : 5596960<br>
Codec configuration box : avcC<br>
<br>
Audio<br>
ID : 2<br>
Format : AAC LC<br>
Format/Info : Advanced Audio Codec Low Complexity<br>
Codec ID : mp4a-40-2<br>
Duration : 1 h 33 min<br>
Bit rate mode : Variable<br>
Bit rate : 128 kb/s<br>
Maximum bit rate : 131 kb/s<br>
Channel(s) : 2 channels<br>
Channel layout : L R<br>
Sampling rate : 48.0 kHz<br>
Frame rate : 46.875 FPS (1024 SPF)<br>
Compression mode : Lossy<br>
Stream size : 85.4 MiB (1%)<br>
Language : English<br>
Default : Yes<br>
Alternate group : 1<br>
​</div></div>
</div></div><br>
<div style="text-align: center"><br>
<br>
<br>
<b>Link(s):</b><br>
<div class="bbCodeBlock bbCodeVfcHH HiddenContent">
<div class="attribution type">Hidden Content:</div>
<blockquote>You must either reply or click 'Like' to see the hidden information contained here.</blockquote>
</div></div>
<div class="messageTextEndMarker">&nbsp;</div>
</blockquote>
</article>]]></description>
                <author><![CDATA[CELOBRAZiL]]></author>
                </item>

                </channel></rss>